Patient4_TMGait_0pt4_02_left_43_EMG.mot
version=1
nRows=30
nColumns=33
inDegrees=no
endheader
time	1LAddLong	2LGlutMax	3LGlutMed	4LIliopsoas	5LSemiMemb	6LBicFemLong	7LRecFem	8LVastMed	9LVastLat	10LGasMed	11LTibAnt	12lTibPost	13LPeroneusLong	14LSol	15LExtDigLong	16LFlexDigLong	17RAddLong	18RGlutMax	19RGlutMed	20RIliopsoas	21RSemiMemb	22RBicFemLong	23RRecFem	24RVastMed	25RVastLat	26RGasMed	27RTibAnt	28RTibPost	29RPeroneusLong	30RSol	31RExtDigLong	32RFlexDigLong
58.235	0.006714	0.038757	-0.014496	0.017853	0.018311	-0.058746	-0.11963	0.000305	-0.018158	-0.081177	0.016785	0.010681	0.075226	-0.095062	0.006866	-0.12131	-0.091705	-0.56259	0.11902	-0.12817	0.20065	-0.03006	-0.53253	0.069733	-0.051422	-0.003815	0.1532	-0.011444	-0.62805	-0.023651	0	-0.00351
58.236	0.003815	0.083466	-0.023193	-0.005493	0.023499	-0.081482	-0.11643	0.005646	-0.026703	0.44571	0.007477	0.002289	0.051422	-0.050049	0.012665	-0.31403	-0.00412	-0.58746	0.095367	-0.02533	0.19623	-0.007935	-0.33295	-0.059357	0.2095	-0.00061	0.14435	-0.006866	-0.41382	-0.00946	-0.001678	-0.006104
58.237	0.010529	0.078888	-0.010529	0.001678	0.042725	-0.049591	-0.11459	0.003204	-0.019073	0.5365	0.005035	0.005951	0.076447	-0.027313	-0.001678	0.86182	0.055695	-0.54855	-0.12253	0.041504	0.18005	0.027771	-0.22598	-0.1973	0.32349	-0.011292	-0.001678	-0.005493	-0.07309	-0.013275	0.000763	-0.002136
58.238	0.012512	0.08255	0.038452	0.011749	0.043182	0.046234	-0.10727	0.001526	-0.014343	-0.25375	-0.007629	0.005035	0.083771	-0.043945	-0.002136	-0.20432	0.072174	-0.5072	-0.26138	0.10513	0.19806	0.013733	-0.17883	-0.15488	0.31158	-0.008545	-0.25116	-0.002747	0.056915	0.004272	0.002289	-0.005493
58.239	0.003204	0.094147	0.047302	0.020294	0.018921	0.098114	-0.11261	0.002899	-0.016022	-0.23499	0.005493	-0.008545	0.067749	-0.000916	-0.019073	-0.055237	0.044861	-0.50217	-0.66925	0.10193	0.098419	0.014343	-0.09079	-0.086517	0.34927	-0.014648	-0.23086	0.000458	0.000916	0.00351	0.000763	-0.010529
58.24	0.000916	0.092926	0.061951	-0.004425	0.005951	0.10147	-0.12161	0.005646	-0.018768	0.13062	0.008087	-0.005493	0.023956	0.085144	-0.018005	-0.049896	0.005798	-0.4216	-0.17883	0.019073	0.006409	0.048676	-0.095367	-0.1268	0.30624	-0.010681	-0.12573	-0.006104	-0.050812	0.000305	0.000916	-0.014954
58.241	0.006409	0.103	0.078583	0.011292	-0.016174	0.040588	-0.12238	-0.001221	-0.00946	0.59174	0.014954	0.004578	-0.006866	0.12665	0.011902	0.31326	-0.000458	-0.43015	0.55527	0.022278	0.14404	-0.007935	-0.20142	-0.05722	0.23697	-0.007324	-0.12817	-0.003204	-0.037537	-0.017548	-0.000916	-0.015106
58.242	0.005188	0.13779	0.078583	0.009155	-0.033569	0.00473	-0.11643	0.003662	0.002747	1.0172	0.013275	0.014801	-0.041809	0.042267	0.017853	-0.075073	0.015717	-0.36591	0.42679	-0.013123	0.075531	0.016937	-0.26703	0.069122	0.16327	-0.009918	-0.084229	-0.007019	-0.054779	0.000763	-0.000305	-0.018616
58.243	0.007172	0.14587	0.077515	0.016785	-0.035706	0.010529	-0.13199	-0.001526	-0.012207	0.77759	0.017395	0.009613	-0.053711	0.013428	0.024109	-0.007019	0.053101	-0.401	0.089264	0.000916	-0.11398	0.038605	-0.16647	0.66498	0.29907	-0.007477	0.041504	-0.002441	-0.059509	-0.000153	-0.000153	-0.021057
58.244	-0.013733	0.10132	0.075836	0.020142	-0.042114	-0.005188	-0.12039	0.002747	-0.030212	0.14358	0.024109	0.004883	-0.075226	0.047455	0.024109	0.075378	0.072174	-0.40115	-0.003357	-0.045624	-0.36255	0.038757	0.020294	0.64499	0.17151	-0.002136	0.19516	0.001526	-0.085602	-0.028534	0.001831	-0.018921
58.245	0.036163	0.10117	0.077972	0.010529	0.026093	-0.016174	-0.13901	-0.00351	-0.016937	-0.26138	0.02182	0.006866	-0.081482	0.075531	0.014038	-0.028839	0.078735	-0.47684	0.36926	-0.048981	-0.34134	0.075989	0.16739	0.47623	-0.090332	-0.009155	0.19012	0.003357	-0.07431	-0.046234	-0.000763	-0.013733
58.246	0.020752	0.088501	0.10574	0.022125	0.033722	-0.049438	-0.12299	-0.007172	-0.010071	-0.24094	0.019226	0.00946	-0.049286	0.074921	0.003662	-0.23117	0.10407	-0.44754	-0.033722	0.018005	-0.16922	0.076599	0.069122	0.14816	-0.093536	-0.009003	0.15595	0.003967	-0.11322	-0.031128	-0.00351	-0.013733
58.247	0.011597	0.10513	0.12512	0.004425	0.001526	-0.067444	-0.10544	-0.003204	-0.000458	0.081329	0.012512	0.017548	-0.04425	0.046692	-0.031891	0.11047	0.15823	-0.40268	0.045776	0.046539	0.32303	0.033264	0.006409	-0.23224	-0.11581	-0.009613	0.040131	0.002289	-0.3627	-0.044403	-0.000305	-0.014038
58.248	0.00473	0.11841	0.1416	0.00885	-0.004425	-0.017395	-0.063171	-0.002136	-0.029602	0.085144	0.018311	0.008698	0.004272	-0.057068	-0.032654	-0.22018	0.24262	-0.42938	-0.35233	-0.063934	0.31876	0.006256	0.084991	-0.53863	-0.13504	-0.00885	-0.11688	0.001068	-0.24857	-0.031128	0.000153	-0.003662
58.249	0.007935	0.086517	0.15656	0.016785	-0.016022	0.012054	-0.063629	-0.001831	-0.009613	0.16052	0.011597	0.014801	0.010223	-0.058136	-0.022278	0.007324	0.23209	-0.45181	-0.32883	-0.09903	0.081635	-0.049133	-0.066071	-0.68939	-0.16983	-0.015259	-0.018158	0.002594	0.38101	-0.018616	0.001678	-0.003815
58.25	-0.008392	0.10407	0.15472	0.006409	0.039673	-0.030212	-0.065918	0.002594	-0.009003	0.15945	-0.019073	0.007019	0.02121	-0.069122	-0.026245	0.11688	0.09903	-0.42816	-0.19989	0.002899	-0.16617	0.089569	-0.41168	-0.60623	-0.12131	-0.004578	0.026855	0.000305	0.91507	-0.049744	0.000458	-0.001373
58.251	0.00412	0.1268	0.1564	0.015717	0.035858	0.009766	-0.070648	0.000458	-0.011139	-0.19943	-0.019226	-0.000916	0.020905	-0.077057	-0.018463	-0.006104	0.003967	-0.38544	-0.10742	0.13763	-0.22095	0.15305	-0.45868	-0.50476	-0.16769	-0.006714	0.0177	0.004578	0.084991	-0.041351	0.002289	-0.009155
58.252	-0.00473	0.13351	0.16007	0.000458	0.040588	0.058746	-0.076141	0.000153	-0.00824	-0.45639	-0.005798	0.002594	0.003052	0.026245	-0.004578	0.073853	-0.10803	-0.36087	-0.30716	0.16144	0.23956	0.25726	-0.25604	-0.17319	-0.11917	-0.007019	-0.046997	0.004578	-0.14618	-0.032501	0.000153	-0.010376
58.253	-0.000763	0.13748	0.17899	0.012512	0.03952	0.057526	-0.077515	-0.00351	0.000458	-0.63675	0.011292	0.007935	-0.030518	0.21378	-0.015869	0.040588	-0.13886	-0.4277	-0.31189	-0.037842	0.34851	0.21652	-0.040741	0.032959	-0.050049	-0.000458	-0.12543	0.001068	-0.66803	-0.03006	0.000458	-0.00885
58.254	-0.005951	0.11337	0.18936	0.032654	0.024872	0.093536	-0.091095	-0.001831	-0.003967	-0.62592	0.008392	0.017853	-0.042267	0.14206	-0.051575	0.012512	-0.095062	-0.47607	-0.21851	-0.19562	0.28564	0.079651	0.12726	0.018921	-0.050049	-0.001831	0.013733	0.00351	-0.95551	-0.11169	-0.003967	-0.007477
58.255	-0.010223	0.1265	0.1828	0.024567	-0.02533	0.015564	-0.057373	-0.002441	0.001831	-0.57526	0.01709	0.014801	-0.051575	0.015259	-0.048523	-0.013885	-0.057983	-0.4042	0.021667	-0.12573	0.028839	0.033569	0.2095	-0.010986	0.13321	-0.001984	0.14526	0.003357	-0.83084	-0.12497	-0.004425	-0.009155
58.256	-0.006561	0.12177	0.18585	0.018005	-0.12421	-0.052795	-0.046082	0.000153	-0.015106	-0.45395	0.023193	0.029144	-0.018158	0.000916	-0.012817	-0.019379	-0.010681	-0.31784	-0.1387	-0.056	-0.15503	0.039063	0.19134	0.076752	0.5545	0	0.10574	0.002136	0.13275	-0.10239	0.000153	-0.015106
58.257	0.000305	0.11368	0.20157	0.001373	-0.13123	-0.093842	-0.0177	0.003662	-0.005188	-0.33585	0.02594	0.015869	-0.036163	0.11627	-0.003357	-0.024567	-0.042877	-0.26627	-0.25055	0.11795	0.16937	0.11292	0.14313	0.12909	0.57648	-0.002899	0.1091	0.006409	0.55389	-0.026245	0.001373	-0.009766
58.258	0.009155	0.12497	0.20172	0.00351	-0.075073	-0.13351	-0.034027	-0.00351	0.001068	-0.28946	0.019073	0.000916	-0.054779	0.068817	0.001068	-0.02533	-0.095825	-0.24826	-0.35934	0.13947	0.45227	-0.024109	0.083008	0.11215	0.27527	-0.005951	0.08255	-0.005188	0.39795	0.057526	0.000763	-0.016479
58.259	0.014954	0.11917	0.19684	0.022125	0.040283	-0.13336	-0.002441	0.001373	-0.003967	-0.15472	0.029449	-0.00351	-0.061646	0.057831	0.011749	-0.006866	-0.058746	-0.22659	0.001068	0.20493	0.42007	-0.027924	0.11917	0.094147	-0.014801	-0.000305	-0.11688	0.003204	0.1561	0.014648	-0.001984	-0.014038
58.26	0.014191	0.13275	0.20233	0.008698	0.12085	-0.072327	0.016479	-0.003357	-0.025787	0.017548	0.012665	0.000153	-0.092163	0.13306	0.012665	0.002136	-0.046539	-0.2478	-0.2327	0.22461	0.19974	-0.036926	0.052185	0.09552	-0.14297	-0.002441	-0.24353	0.00473	-0.048065	-0.020752	-0.001068	-0.014801
58.261	0.023193	0.099945	0.1857	0.013275	0.063171	-0.000763	-0.010681	0.001678	-0.019226	-0.13153	-0.000916	-0.006256	-0.078583	0.1387	0.041809	-0.004578	-0.021362	-0.25085	-0.15564	0.071259	0.31067	-0.1416	-0.15915	0.080109	-0.24124	-0.001984	-0.083923	0.001068	-0.89813	-0.065308	-0.000153	-0.010681
58.262	0.011292	0.11032	0.17197	0.020142	0.04425	-0.021362	-0.007172	-0.008392	0.008087	-0.27802	-0.01236	0	-0.033722	0.096588	0.037384	-0.010071	-0.002899	-0.30136	0.040894	-0.002594	0.51407	-0.28686	-0.28854	0.084991	-0.27618	-0.000458	-0.12741	0.001526	0.07782	-0.074158	0.00351	-0.008698
58.263	0.008392	0.083923	0.14832	0.008698	0.054779	-0.055389	-0.011139	0	0.007629	-0.084229	-0.001831	-0.002136	0.007782	0.060272	0.039215	-0.005493	-0.035095	-0.32806	-0.095825	0.015869	0.24246	-0.22278	-0.13825	-0.054932	-0.18799	0.000458	-0.08728	0.001221	0.94269	-0.070343	0.000916	-0.009003
58.264	0.003967	0.12909	0.16174	0.001526	0.054932	-0.068817	-0.001526	-0.00412	-0.001373	0.26245	0.005951	-0.00351	0.016937	0.015259	0.036316	-0.004425	-0.12955	-0.37918	-0.45761	-0.066376	-0.15503	-0.04776	-0.001373	-0.24796	0.40436	-0.00824	0.11932	0.004883	0.092926	-0.092621	0.003204	-0.008087
